<?xml version="1.0" encoding="utf-8"?>
<!-- Generator: Adobe Illustrator 26.0.1, SVG Export Plug-In . SVG Version: 6.00 Build 0)  -->
<svg version="1.1" id="Ebene_1" xmlns="http://www.w3.org/2000/svg" xmlns:xlink="http://www.w3.org/1999/xlink" x="0px" y="0px"
	 viewBox="0 0 221 92.7" style="enable-background:new 0 0 221 92.7;" xml:space="preserve">
<style type="text/css">
	.st0{fill:#FFFFFF;}
</style>
<g id="Ebene_2_00000036956634249752106650000006841761785497113240_">
	<g id="Ebene_1-2">
		<path class="st0" d="M7.3,45.1c-2.5-0.7-5-1.6-7.3-2.9l3.6-7.8c1.8,1.2,3.8,2.1,5.9,2.7c2,0.6,4.1,1,6.2,1c1,0.1,2-0.1,2.9-0.5
			c0.5-0.2,0.9-0.7,0.9-1.3c0-0.7-0.4-1.2-1.3-1.6c-1.4-0.6-2.8-1-4.2-1.4c-2-0.5-3.9-1.1-5.7-1.9c-1.5-0.6-2.9-1.6-4-2.9
			c-1.2-1.4-1.8-3.2-1.7-5c0-2,0.6-3.9,1.8-5.5c1.3-1.7,3.1-3,5.1-3.7c2.4-0.9,5-1.4,7.6-1.3c2.5,0,4.9,0.3,7.3,1
			c2.2,0.6,4.3,1.5,6.1,2.8l-3.5,7.5c-1.5-1.1-3.2-1.9-5-2.5c-1.7-0.6-3.4-0.9-5.1-0.9c-1.1-0.1-2.1,0.1-3.1,0.5
			c-0.6,0.2-1,0.7-1,1.3c0,0.7,0.4,1.2,1.3,1.7c1.4,0.6,2.8,1.1,4.2,1.4c2,0.5,3.9,1.2,5.8,1.9c1.5,0.6,2.9,1.6,4,2.9
			c1.2,1.4,1.8,3.2,1.7,5c0.1,3-1.3,5.9-3.8,7.7c-2.6,1.8-6,2.7-10.4,2.7C12.7,46.1,9.9,45.8,7.3,45.1z"/>
		<path class="st0" d="M57.8,17c2.6,2.7,3.9,6.5,3.9,11.4c0,1.1-0.1,2.3-0.2,3.4H41.9c0.5,3.9,2.9,5.8,7,5.8c3.2,0,6.3-1.1,8.9-3
			l2.3,7.6c-1.6,1.3-3.4,2.2-5.3,2.8c-2.2,0.7-4.5,1-6.8,1c-3.1,0.1-6.2-0.6-9-1.9c-2.5-1.2-4.6-3.1-6.1-5.5
			c-1.5-2.5-2.2-5.3-2.2-8.2c-0.1-3.1,0.7-6.2,2.2-9c1.4-2.6,3.4-4.7,5.9-6.2c2.5-1.5,5.4-2.3,8.3-2.2C51.7,13,55.2,14.3,57.8,17z
			 M44,22.1c-1.1,1.2-1.8,2.7-1.9,4.4h10.3c-0.1-3.8-1.7-5.7-4.7-5.7C46.3,20.7,45,21.2,44,22.1z"/>
		<path class="st0" d="M98,13.8L81.4,45.6h-9.5L60.5,13.8h11.6l5.8,17.8l8.7-17.8H98z"/>
		<path class="st0" d="M121,17c2.6,2.7,3.9,6.5,3.9,11.4c0,1.1-0.1,2.3-0.2,3.4h-19.6c0.5,3.9,2.9,5.8,7,5.8c3.2,0,6.3-1.1,8.9-3
			l2.3,7.6c-1.6,1.3-3.4,2.2-5.3,2.8c-2.2,0.7-4.5,1-6.8,1c-3.1,0.1-6.2-0.6-9-1.9c-2.5-1.2-4.6-3.1-6.1-5.5
			c-1.5-2.5-2.2-5.3-2.2-8.2c-0.1-3.1,0.7-6.2,2.2-9c1.4-2.6,3.4-4.7,5.9-6.2c2.5-1.5,5.4-2.3,8.3-2.2C114.9,13,118.4,14.3,121,17z
			 M107.2,22.1c-1.1,1.2-1.8,2.7-1.9,4.4h10.3c-0.1-3.8-1.7-5.7-4.7-5.7C109.5,20.7,108.2,21.2,107.2,22.1z"/>
		<path class="st0" d="M157.9,16c1.8,2,2.7,4.9,2.7,8.8c0,0.9,0,1.7-0.1,2.2l-1.5,18.5h-11.5l1.5-18.2c0.2-1.4-0.1-2.9-0.9-4.2
			c-0.8-1-2-1.6-3.3-1.5c-1.5-0.1-2.9,0.5-3.9,1.6c-1,1.3-1.5,2.8-1.6,4.4L138,45.6h-11.5l2.5-31.8h11.2l-0.3,3.4
			c1.2-1.3,2.6-2.4,4.3-3c1.8-0.8,3.8-1.1,5.8-1.1C153.5,13,156.1,14,157.9,16z"/>
		<path class="st0" d="M178.4,32.7l-0.1,0.9c0,2.8,1.5,4.2,4.6,4.2c0.7,0,1.7-0.1,3-0.2l-1.2,8.1c-1.3,0.2-2.6,0.3-3.9,0.3
			c-9.3,0-14-3.9-14-11.6c0-0.8,0-1.4,0.1-1.9l0.8-10.4h-5.9l0.6-8.5h5.9l0.7-9.2h11.5l-0.7,9.2h7.6l-0.6,8.5h-7.6L178.4,32.7z"/>
		<path class="st0" d="M218.3,16c1.8,2,2.7,4.9,2.7,8.8c0,0.9,0,1.7-0.1,2.2l-1.5,18.5H208l1.5-18.2c0.2-1.4-0.1-2.9-0.9-4.2
			c-0.8-1-2-1.6-3.3-1.5c-1.5-0.1-2.9,0.5-3.9,1.6c-1,1.3-1.5,2.8-1.6,4.4l-1.4,17.7h-11.5L190.3,0h11.5l-1.4,16.8
			c1.2-1.2,2.7-2.2,4.3-2.8c1.8-0.7,3.7-1,5.6-1C213.8,13,216.5,14,218.3,16z"/>
		<path class="st0" d="M51.1,60.4h7.6L58,68.9h-7.6l-1.9,23.3H37l1.9-23.3H33l0.6-8.5h5.9l0.1-0.6c0.1-3.7,1.9-7.2,4.8-9.5
			c2.8-2.2,7-3.4,12.5-3.7l4-0.3l0.2,8.3l-4.7,0.2c-1.3-0.1-2.7,0.3-3.8,1c-0.9,0.8-1.5,2-1.5,3.2L51.1,60.4z"/>
		<path class="st0" d="M64.9,90.8c-2.5-1.2-4.6-3.1-6.1-5.5c-1.5-2.5-2.2-5.4-2.1-8.3c-0.1-3.2,0.7-6.4,2.2-9.3
			c1.4-2.6,3.6-4.6,6.2-6c2.9-1.4,6.1-2.1,9.3-2.1c3.2-0.1,6.4,0.6,9.2,1.9c2.5,1.2,4.6,3.1,6.1,5.5c1.5,2.5,2.2,5.4,2.1,8.3
			c0.1,3.3-0.7,6.5-2.2,9.3c-1.4,2.6-3.6,4.6-6.2,6c-2.9,1.4-6.1,2.1-9.3,2.1C70.9,92.8,67.8,92.1,64.9,90.8z M78.9,81.7
			c1.1-2,1.6-4.3,1.5-6.6c0-2.4-0.5-4.1-1.5-5.3c-1.1-1.2-2.8-1.8-4.4-1.7c-2-0.2-3.9,0.8-4.9,2.6c-1.1,2-1.6,4.2-1.5,6.5
			c0,2.4,0.5,4.2,1.5,5.4c1.1,1.2,2.8,1.9,4.4,1.7C75.9,84.4,77.9,83.4,78.9,81.7L78.9,81.7z"/>
		<path class="st0" d="M101.2,90.8c-2.5-1.2-4.6-3.1-6.1-5.5c-1.5-2.5-2.2-5.3-2.1-8.2c-0.1-3.3,0.7-6.5,2.3-9.4
			c1.5-2.6,3.7-4.7,6.4-6c3-1.4,6.4-2.1,9.7-2.1c5.2,0,9.4,1.3,12.7,3.8l-3.6,7.8c-1.3-0.9-2.7-1.6-4.2-2.1
			c-1.4-0.5-2.8-0.8-4.3-0.8c-2-0.1-4,0.7-5.4,2.2c-1.4,1.8-2.1,4.1-1.9,6.4c-0.1,1.9,0.5,3.8,1.7,5.3c1.2,1.3,2.9,1.9,4.7,1.8
			c3.1-0.1,6.1-1.1,8.7-3l2.3,7.8c-1.6,1.3-3.4,2.2-5.3,2.8C111.7,93.3,106.1,93,101.2,90.8L101.2,90.8z"/>
		<path class="st0" d="M157.6,60.4l-2.5,31.8h-11.2l0.3-3.6c-1.2,1.3-2.6,2.4-4.3,3c-1.8,0.7-3.7,1.1-5.6,1.1c-3.5,0-6.1-1-7.9-2.9
			c-1.8-2-2.7-4.8-2.7-8.6c0-0.5,0-1.2,0.1-2.3l1.4-18.5h11.5l-1.4,17.9l-0.1,1c-0.1,1.2,0.3,2.5,1,3.5c0.8,0.8,1.9,1.3,3,1.2
			c1.4,0.1,2.8-0.5,3.7-1.6c1-1.3,1.5-2.8,1.6-4.4l1.4-17.4L157.6,60.4z"/>
		<path class="st0" d="M164.8,91.8c-2.5-0.7-5-1.6-7.3-2.9l3.6-7.8c1.8,1.2,3.8,2.1,5.9,2.7c2,0.6,4.1,1,6.2,1c1,0.1,2-0.1,2.9-0.5
			c0.5-0.2,0.9-0.7,0.9-1.3c0-0.7-0.4-1.2-1.3-1.6c-1.4-0.6-2.8-1-4.2-1.4c-2-0.5-3.9-1.1-5.7-1.9c-1.5-0.6-2.9-1.6-4-2.9
			c-1.2-1.4-1.8-3.2-1.7-5c0-2,0.6-3.9,1.8-5.5c1.3-1.7,3.1-3,5.1-3.7c2.4-0.9,5-1.4,7.6-1.3c2.5,0,4.9,0.3,7.3,1
			c2.2,0.6,4.3,1.5,6.1,2.8l-3.5,7.5c-1.5-1.1-3.2-1.9-5-2.5c-1.7-0.6-3.4-0.9-5.1-0.9c-1.1-0.1-2.1,0.1-3.1,0.5
			c-0.6,0.2-1,0.7-1,1.3c0,0.7,0.4,1.2,1.3,1.7c1.4,0.6,2.8,1.1,4.2,1.4c2,0.5,3.9,1.2,5.8,1.9c1.5,0.6,2.9,1.6,4,2.9
			c1.2,1.4,1.8,3.2,1.7,5c0.1,3-1.3,5.9-3.8,7.7c-2.6,1.8-6,2.7-10.4,2.7C170.1,92.8,167.4,92.4,164.8,91.8z"/>
		<polygon class="st0" points="127.5,32.9 139,32.9 136.4,65.5 124.9,65.4 		"/>
		<polygon class="st0" points="148.6,32.9 145.7,65.5 157.2,65.5 159.8,37 		"/>
		<path class="st0" d="M120.6,71.2c1.6,1,3,2.3,4.3,3.6c1.6,1.7,7-6.7,7-6.7l-7.8-4.7l-4.8,1.6L120.6,71.2z"/>
		<polygon class="st0" points="119.9,81.1 125.7,76.6 126,86.7 122.1,88.9 115.4,87.8 		"/>
		<polygon class="st0" points="121.1,34.7 128.8,29.3 129.3,38 123.4,42.3 		"/>
		<polygon class="st0" points="161,81.1 155.6,77.7 153.2,85.7 157.5,88.9 		"/>
		<polygon class="st0" points="162.5,13.8 153.2,13.8 154.3,18.5 157.2,22.1 161.8,22.2 		"/>
	</g>
</g>
</svg>
